<svg xmlns="http://www.w3.org/2000/svg" width="512" height="512" viewBox="0 0 512 512">
  <defs>
    <linearGradient id="spiralGrad" x1="0" y1="0" x2="1" y2="1">
      <stop offset="0%" stop-color="#92ecff"/>
      <stop offset="50%" stop-color="#7ea2ff"/>
      <stop offset="100%" stop-color="#91ffd5"/>
    </linearGradient>
  </defs>
  <rect width="512" height="512" fill="black" fill-opacity="0"/>
  <path d="M256 256m0 -10
           c30 -6 62 10 76 38
           c17 34 7 79 -23 106
           c-40 35 -99 39 -145 9
           c-54 -35 -75 -107 -52 -167
           c30 -76 117 -117 196 -92
           c89 28 143 129 118 222
           c-29 107 -150 178 -260 151
           c-126 -31 -215 -169 -189 -298"
        fill="none"
        stroke="url(#spiralGrad)"
        stroke-opacity="0.62"
        stroke-width="8"
        stroke-linecap="round"/>
</svg>
